<svg id="Layer_1" xmlns="http://www.w3.org/2000/svg" viewBox="0 0 162.3 49.1"><style>.twowaveweb0{fill:#faa936}.twowaveweb1{fill:#58595b}</style><path class="twowaveweb0" d="M18.4 27.5C9.5 32.3.8 36.9 0 48.3h33.9l1.8-8H13.2c6.3-6.7 21.9-10.6 25.3-20.7-3.4.5-7 1.1-10.9 1.8-2.4 2.7-6.3 4.5-9.2 6.1"/><path class="twowaveweb1" d="M24 1.7C13.4 1.7 6.5 8.1 5.6 19.1h8.8c.2-5 3.4-9.4 8.4-9.4 3.9 0 7 1.8 7 6.4 0 2.2-.9 3.9-2.3 5.4 3.8-.8 7.4-1.4 10.9-1.8.4-1.3.7-2.6.7-4.1C39.2 6 32.2 1.7 24 1.7m27.2 12.9h-9.5l.5 4.6c3.2-.4 6.3-.6 9.2-.7l-.2-3.9zm21.2 0H63l-1.8 4c4.1.2 7.8.7 11.4 1.3l-.2-5.3z"/><path class="twowaveweb0" d="M73.5 38.1h-.1l-.8-18.2c-3.6-.6-7.3-1.1-11.4-1.3l-8.6 19.7h-.1l-1.1-19.8c-2.9.1-5.9.3-9.2.7l3.2 29.2h9.7l10.4-23.7h.1l1.2 23.7h9.7l12.8-24.5c-2.7-.7-5.5-1.5-8.2-2.1l-7.6 16.3z"/><path class="twowaveweb1" d="M84.4 14.6l-3.3 7.1c2.8.7 5.5 1.4 8.2 2.1l4.8-9.2h-9.7z"/><path class="twowaveweb0" d="M103.6 28.9c-8 1-12.9 5-12.9 11.5 0 4.7 3.6 8.9 11 8.9 3.8 0 7.8-1.4 10.3-4.2v3.3h9.3c-.2-.6-.3-1.4-.3-2 0-1.3.1-3.4.5-4.6l2.5-11.5c-5-.3-10.2-1-15.5-2-1.6.2-3.1.4-4.9.6m10.1 6.5c-1 3.7-2.9 7.6-8.7 7.6-2.7 0-5.1-1.2-5.1-3.8 0-4.2 3.3-5.1 6.9-5.5 2.7-.2 5.5-.3 7.8-1.6l-.9 3.3z"/><path class="twowaveweb1" d="M125.1 22.5c.1-7.6-8-8.9-14-8.9-7.6 0-14.8 2.7-16 11.2h8.7c.6-3.4 3.5-5 6.9-5 2.3 0 5.9.8 5.9 4.1 0 3.4-2.6 3.8-8.1 4.4 5.3 1 10.6 1.6 15.5 2l.5-2.1c.2-2.1.6-4.2.6-5.7"/><path class="twowaveweb0" d="M140.9 38.6h-.1l-.7-8c-2.8.1-5.7.1-8.8.1l2.3 17.7h10.6l10.3-18.9c-2.6.3-5.8.7-9.5.9l-4.1 8.2z"/><path class="twowaveweb1" d="M152.9 14.6L145 30.4c3.7-.2 6.9-.6 9.5-.9l8.1-14.9h-9.7zm-12.8 16l-1.4-16h-9.5l2.1 16.1c3.1 0 6.1 0 8.8-.1M101.6.3h23.5L123 7.7H99.5z"/></svg>
