<?xml version="1.0" encoding="utf-8"?>
<!-- Generator: Adobe Illustrator 16.0.0, SVG Export Plug-In . SVG Version: 6.00 Build 0)  -->
<!DOCTYPE svg PUBLIC "-//W3C//DTD SVG 1.1//EN" "http://www.w3.org/Graphics/SVG/1.1/DTD/svg11.dtd">
<svg version="1.1" id="Main" xmlns="http://www.w3.org/2000/svg" xmlns:xlink="http://www.w3.org/1999/xlink" x="0px" y="0px"
	 width="124px" height="40.841px" viewBox="0 0 124 40.841" enable-background="new 0 0 124 40.841" xml:space="preserve">
<g>
	<g>
		<g>
			<defs>
				<rect id="SVGID_1_" width="124.022" height="40.841"/>
			</defs>
			<clipPath id="SVGID_2_">
				<use xlink:href="#SVGID_1_"  overflow="visible"/>
			</clipPath>
			<path clip-path="url(#SVGID_2_)" fill="#A7A9AC" d="M13.911-194.455c-6.64,3.539-13.088,6.98-13.668,15.463h25.157l1.357-5.914
				H10.035c4.695-4.955,16.277-7.845,18.795-15.405c-2.53,0.342-5.21,0.791-8.06,1.361
				C18.955-196.975,16.034-195.672,13.911-194.455"/>
			<path clip-path="url(#SVGID_2_)" fill="#FCB216" d="M18.031-213.602c-7.804,0-12.941,4.751-13.621,12.894h6.545
				c0.145-3.732,2.52-6.98,6.252-6.98c2.908,0,5.236,1.357,5.236,4.749c0,1.605-0.67,2.898-1.673,3.989
				c2.85-0.569,5.53-1.019,8.06-1.361c0.315-0.945,0.497-1.959,0.497-3.063C29.327-210.403,24.187-213.602,18.031-213.602"/>
			<path clip-path="url(#SVGID_2_)" fill="#FCB216" d="M38.243-204.052h-7.028l0.376,3.409c2.4-0.261,4.664-0.422,6.812-0.498
				L38.243-204.052z"/>
			<path clip-path="url(#SVGID_2_)" fill="#FFC425" d="M53.998-204.052h-6.98l-1.304,2.982c3.013,0.172,5.804,0.511,8.458,0.962
				L53.998-204.052z"/>
			<path clip-path="url(#SVGID_2_)" fill="#A7A9AC" d="M54.869-186.554h-0.097l-0.6-13.554c-2.654-0.452-5.446-0.79-8.458-0.962
				l-6.404,14.663h-0.096l-0.811-14.735c-2.148,0.077-4.412,0.238-6.812,0.498l2.387,21.652h7.223l7.754-17.596h0.097l0.873,17.596
				H57.1l9.521-18.232c-2.029-0.547-4.053-1.084-6.119-1.577L54.869-186.554z"/>
			<path clip-path="url(#SVGID_2_)" fill="#FCB216" d="M62.916-204.052l-2.415,5.251c2.066,0.493,4.091,1.03,6.119,1.577
				l3.567-6.828H62.916z"/>
			<path clip-path="url(#SVGID_2_)" fill="#A7A9AC" d="M77.176-193.436c-5.962,0.727-9.598,3.732-9.598,8.53
				c0,3.491,2.665,6.593,8.143,6.593c2.811,0,5.77-1.018,7.66-3.151v2.473h6.882c-0.146-0.437-0.242-1.019-0.242-1.455
				c0-0.969,0.097-2.52,0.34-3.394l1.883-8.516c-3.7-0.256-7.586-0.714-11.544-1.453C79.661-193.705,78.493-193.594,77.176-193.436
				 M84.688-188.589c-0.774,2.715-2.181,5.67-6.447,5.67c-1.985,0-3.779-0.921-3.779-2.81c0-3.15,2.472-3.781,5.089-4.073
				c1.985-0.145,4.072-0.193,5.815-1.211L84.688-188.589z"/>
			<path clip-path="url(#SVGID_2_)" fill="#FCB216" d="M93.123-198.138c0.097-5.624-5.962-6.593-10.421-6.593
				c-5.672,0-11.004,1.987-11.876,8.29h6.447c0.436-2.522,2.616-3.685,5.089-3.685c1.745,0,4.361,0.582,4.361,3.053
				c0,2.551-1.947,2.853-6.023,3.264c3.958,0.739,7.842,1.197,11.543,1.453l0.347-1.566
				C92.881-195.473,93.123-197.073,93.123-198.138"/>
			<path clip-path="url(#SVGID_2_)" fill="#A7A9AC" d="M104.925-186.214h-0.096l-0.519-5.945c-2.052,0.071-4.24,0.094-6.539,0.049
				l1.725,13.118h7.852l7.671-14.012c-1.943,0.244-4.322,0.49-7.048,0.665L104.925-186.214z"/>
			<path clip-path="url(#SVGID_2_)" fill="#FCB216" d="M113.797-204.052l-5.826,11.713c2.726-0.176,5.104-0.421,7.049-0.665
				l6.048-11.048H113.797z"/>
			<path clip-path="url(#SVGID_2_)" fill="#FCB216" d="M104.312-192.159l-1.034-11.893H96.2l1.571,11.942
				C100.069-192.065,102.26-192.088,104.312-192.159"/>
			<polygon clip-path="url(#SVGID_2_)" fill="#FCB216" points="75.73,-214.68 93.189,-214.68 91.567,-209.153 74.109,-209.153
				"/>
			<path clip-path="url(#SVGID_2_)" fill="#FCB216" d="M224.658-194.16c-6.641,3.539-13.088,6.98-13.668,15.463h25.156l1.357-5.914
				h-16.722c4.694-4.954,16.276-7.845,18.795-15.405c-2.53,0.342-5.21,0.791-8.061,1.361
				C229.702-196.68,226.781-195.378,224.658-194.16"/>
			<path clip-path="url(#SVGID_2_)" fill="#FFFFFF" d="M228.778-213.307c-7.804,0-12.941,4.751-13.621,12.894h6.545
				c0.146-3.732,2.521-6.98,6.252-6.98c2.908,0,5.236,1.357,5.236,4.749c0,1.605-0.67,2.898-1.673,3.989
				c2.85-0.569,5.529-1.019,8.06-1.361c0.315-0.945,0.497-1.959,0.497-3.063C240.074-210.108,234.935-213.307,228.778-213.307"/>
			<path clip-path="url(#SVGID_2_)" fill="#FFFFFF" d="M248.99-203.757h-7.028l0.376,3.409c2.4-0.261,4.664-0.422,6.812-0.498
				L248.99-203.757z"/>
			<path clip-path="url(#SVGID_2_)" fill="#FFFFFF" d="M264.745-203.757h-6.98l-1.304,2.982c3.013,0.172,5.804,0.511,8.458,0.962
				L264.745-203.757z"/>
			<path clip-path="url(#SVGID_2_)" fill="#FCB216" d="M265.616-186.259h-0.097l-0.601-13.554c-2.653-0.451-5.445-0.79-8.458-0.962
				l-6.403,14.663h-0.097l-0.811-14.735c-2.148,0.077-4.412,0.238-6.812,0.498l2.388,21.652h7.223l7.754-17.596h0.097l0.873,17.596
				h7.176l9.521-18.232c-2.029-0.547-4.053-1.084-6.119-1.577L265.616-186.259z"/>
			<path clip-path="url(#SVGID_2_)" fill="#FFFFFF" d="M273.664-203.757l-2.415,5.251c2.065,0.493,4.091,1.03,6.118,1.577
				l3.567-6.828H273.664z"/>
			<path clip-path="url(#SVGID_2_)" fill="#FCB216" d="M287.923-193.141c-5.962,0.727-9.597,3.732-9.597,8.53
				c0,3.491,2.665,6.593,8.142,6.593c2.811,0,5.77-1.018,7.66-3.151v2.473h6.882c-0.145-0.437-0.242-1.019-0.242-1.455
				c0-0.969,0.098-2.52,0.34-3.394l1.884-8.516c-3.701-0.256-7.587-0.714-11.544-1.453
				C290.409-193.41,289.241-193.299,287.923-193.141 M295.436-188.294c-0.774,2.715-2.181,5.67-6.447,5.67
				c-1.986,0-3.779-0.921-3.779-2.81c0-3.15,2.472-3.781,5.089-4.073c1.986-0.145,4.072-0.193,5.815-1.211L295.436-188.294z"/>
			<path clip-path="url(#SVGID_2_)" fill="#FFFFFF" d="M303.87-197.843c0.098-5.624-5.962-6.593-10.421-6.593
				c-5.672,0-11.004,1.987-11.876,8.29h6.447c0.436-2.522,2.617-3.685,5.089-3.685c1.745,0,4.362,0.582,4.362,3.053
				c0,2.551-1.948,2.853-6.024,3.264c3.958,0.739,7.842,1.197,11.543,1.453l0.347-1.566
				C303.628-195.178,303.87-196.778,303.87-197.843"/>
			<path clip-path="url(#SVGID_2_)" fill="#FCB216" d="M315.673-185.919h-0.097l-0.518-5.945c-2.052,0.071-4.241,0.094-6.54,0.049
				l1.725,13.118h7.853l7.671-14.012c-1.944,0.244-4.323,0.49-7.048,0.665L315.673-185.919z"/>
			<path clip-path="url(#SVGID_2_)" fill="#FFFFFF" d="M324.544-203.757l-5.826,11.713c2.726-0.176,5.104-0.421,7.049-0.665
				l6.048-11.048H324.544z"/>
			<path clip-path="url(#SVGID_2_)" fill="#FFFFFF" d="M315.059-191.864l-1.034-11.893h-7.076l1.57,11.942
				C310.816-191.771,313.007-191.793,315.059-191.864"/>
			<polygon clip-path="url(#SVGID_2_)" fill="#FFFFFF" points="286.479,-214.386 303.938,-214.386 302.315,-208.858 
				284.857,-208.858 			"/>
			<path clip-path="url(#SVGID_2_)" fill="#A7A9AC" d="M14.488-50.466C7.848-46.927,1.4-43.486,0.82-35.003h25.157l1.357-5.914
				H10.612c4.695-4.954,16.277-7.845,18.795-15.405c-2.53,0.342-5.21,0.791-8.06,1.361C19.532-52.986,16.611-51.684,14.488-50.466"
				/>
			<path clip-path="url(#SVGID_2_)" fill="#FCB216" d="M18.608-69.613c-7.804,0-12.941,4.751-13.621,12.894h6.545
				c0.145-3.731,2.52-6.979,6.252-6.979c2.908,0,5.236,1.356,5.236,4.749c0,1.604-0.67,2.897-1.673,3.989
				c2.85-0.569,5.53-1.02,8.06-1.361c0.315-0.945,0.497-1.959,0.497-3.063C29.904-66.414,24.764-69.613,18.608-69.613"/>
			<path clip-path="url(#SVGID_2_)" fill="#FFC425" d="M38.82-60.063h-7.028l0.376,3.409c2.4-0.261,4.664-0.422,6.812-0.498
				L38.82-60.063z"/>
			<path clip-path="url(#SVGID_2_)" fill="#FCB216" d="M54.575-60.063h-6.98l-1.304,2.982c3.013,0.172,5.804,0.511,8.458,0.962
				L54.575-60.063z"/>
			<path clip-path="url(#SVGID_2_)" fill="#A7A9AC" d="M55.446-42.565h-0.097l-0.6-13.554c-2.654-0.452-5.446-0.79-8.458-0.962
				l-6.404,14.663h-0.096L38.98-57.153c-2.148,0.077-4.412,0.238-6.812,0.498l2.387,21.652h7.223L49.532-52.6h0.097l0.873,17.597
				h7.175l9.521-18.232c-2.029-0.547-4.054-1.085-6.119-1.577L55.446-42.565z"/>
			<path clip-path="url(#SVGID_2_)" fill="#FCB216" d="M63.493-60.063l-2.415,5.251c2.066,0.493,4.09,1.03,6.119,1.577l3.567-6.828
				H63.493z"/>
			<path clip-path="url(#SVGID_2_)" fill="#A7A9AC" d="M77.753-49.447c-5.962,0.727-9.598,3.731-9.598,8.53
				c0,3.49,2.665,6.593,8.143,6.593c2.811,0,5.77-1.019,7.66-3.151v2.474h6.882c-0.146-0.438-0.242-1.02-0.242-1.456
				c0-0.969,0.097-2.52,0.34-3.394l1.883-8.516c-3.7-0.256-7.586-0.714-11.544-1.453C80.238-49.717,79.07-49.605,77.753-49.447
				 M85.266-44.601c-0.775,2.715-2.181,5.67-6.447,5.67c-1.985,0-3.779-0.921-3.779-2.81c0-3.15,2.472-3.781,5.089-4.073
				c1.985-0.145,4.071-0.193,5.815-1.211L85.266-44.601z"/>
			<path clip-path="url(#SVGID_2_)" fill="#FFC425" d="M93.7-54.149c0.097-5.624-5.962-6.593-10.421-6.593
				c-5.672,0-11.004,1.986-11.876,8.29h6.446c0.437-2.522,2.617-3.686,5.09-3.686c1.745,0,4.361,0.582,4.361,3.053
				c0,2.552-1.947,2.854-6.023,3.265c3.958,0.739,7.842,1.197,11.543,1.453l0.347-1.566C93.458-51.484,93.7-53.085,93.7-54.149"/>
			<path clip-path="url(#SVGID_2_)" fill="#A7A9AC" d="M105.502-42.226h-0.096l-0.519-5.945c-2.052,0.071-4.24,0.095-6.54,0.05
				l1.726,13.117h7.852l7.671-14.012c-1.943,0.244-4.322,0.49-7.048,0.665L105.502-42.226z"/>
			<path clip-path="url(#SVGID_2_)" fill="#FCB216" d="M114.374-60.063l-5.826,11.713c2.726-0.176,5.104-0.421,7.049-0.665
				l6.048-11.048H114.374z"/>
			<path clip-path="url(#SVGID_2_)" fill="#FCB216" d="M104.889-48.171l-1.034-11.893h-7.077l1.571,11.942
				C100.646-48.076,102.837-48.1,104.889-48.171"/>
			<polygon clip-path="url(#SVGID_2_)" fill="#FCB216" points="76.308,-70.691 93.767,-70.691 92.145,-65.164 74.687,-65.164 			"/>
			<path clip-path="url(#SVGID_2_)" fill="#FAA836" d="M14.488,20.789C7.848,24.328,1.4,27.77,0.82,36.252h25.157l1.357-5.914
				H10.612c4.695-4.954,16.277-7.845,18.795-15.404c-2.53,0.342-5.21,0.79-8.06,1.36C19.532,18.27,16.611,19.571,14.488,20.789"/>
			<path clip-path="url(#SVGID_2_)" fill="#FFFFFF" d="M18.608,1.642c-7.804,0-12.941,4.751-13.621,12.895h6.545
				c0.145-3.732,2.52-6.98,6.252-6.98c2.908,0,5.236,1.357,5.236,4.749c0,1.605-0.67,2.898-1.673,3.989
				c2.85-0.569,5.53-1.019,8.06-1.361c0.315-0.944,0.497-1.959,0.497-3.062C29.904,4.841,24.764,1.642,18.608,1.642"/>
			<path clip-path="url(#SVGID_2_)" fill="#FFFFFF" d="M38.82,11.191h-7.028l0.376,3.409c2.4-0.261,4.664-0.422,6.812-0.498
				L38.82,11.191z"/>
			<path clip-path="url(#SVGID_2_)" fill="#FFFFFF" d="M54.575,11.191h-6.98l-1.304,2.982c3.013,0.172,5.804,0.511,8.458,0.962
				L54.575,11.191z"/>
			<path clip-path="url(#SVGID_2_)" fill="#FAA836" d="M55.446,28.69h-0.097l-0.6-13.555c-2.654-0.452-5.446-0.79-8.458-0.962
				l-6.404,14.663h-0.096L38.98,14.102c-2.148,0.077-4.412,0.238-6.812,0.498l2.387,21.652h7.223l7.754-17.596h0.097l0.873,17.596
				h7.175l9.521-18.231c-2.029-0.548-4.054-1.085-6.119-1.577L55.446,28.69z"/>
			<path clip-path="url(#SVGID_2_)" fill="#FFFFFF" d="M63.493,11.191l-2.415,5.251c2.066,0.493,4.09,1.03,6.119,1.577l3.567-6.828
				H63.493z"/>
			<path clip-path="url(#SVGID_2_)" fill="#FAA836" d="M77.753,21.808c-5.962,0.728-9.598,3.732-9.598,8.53
				c0,3.491,2.665,6.593,8.143,6.593c2.811,0,5.77-1.018,7.66-3.15v2.473h6.882c-0.146-0.437-0.242-1.019-0.242-1.456
				c0-0.968,0.097-2.519,0.34-3.393l1.883-8.517c-3.7-0.256-7.586-0.714-11.544-1.453C80.238,21.538,79.07,21.65,77.753,21.808
				 M85.266,26.655c-0.775,2.715-2.181,5.67-6.447,5.67c-1.985,0-3.779-0.921-3.779-2.811c0-3.149,2.472-3.78,5.089-4.072
				c1.985-0.146,4.071-0.193,5.815-1.212L85.266,26.655z"/>
			<path clip-path="url(#SVGID_2_)" fill="#FFFFFF" d="M93.7,17.105c0.097-5.624-5.962-6.593-10.421-6.593
				c-5.672,0-11.004,1.987-11.876,8.29h6.446c0.437-2.522,2.617-3.685,5.09-3.685c1.745,0,4.361,0.582,4.361,3.053
				c0,2.551-1.947,2.853-6.023,3.264c3.958,0.739,7.842,1.197,11.543,1.453l0.347-1.566C93.458,19.771,93.7,18.171,93.7,17.105"/>
			<path clip-path="url(#SVGID_2_)" fill="#FAA836" d="M105.502,29.029h-0.096l-0.519-5.944c-2.052,0.07-4.24,0.094-6.54,0.049
				l1.726,13.118h7.852l7.671-14.013c-1.943,0.244-4.322,0.49-7.048,0.665L105.502,29.029z"/>
			<path clip-path="url(#SVGID_2_)" fill="#FFFFFF" d="M114.374,11.191l-5.826,11.713c2.726-0.176,5.104-0.421,7.049-0.665
				l6.048-11.048H114.374z"/>
			<path clip-path="url(#SVGID_2_)" fill="#FFFFFF" d="M104.889,23.085l-1.034-11.894h-7.077l1.571,11.942
				C100.646,23.179,102.837,23.155,104.889,23.085"/>
			<path clip-path="url(#SVGID_2_)" fill="#FFFFFF" d="M225.235-50.172c-6.641,3.539-13.089,6.98-13.668,15.463h25.156l1.357-5.914
				h-16.722c4.694-4.954,16.276-7.845,18.795-15.404c-2.53,0.342-5.21,0.791-8.061,1.36
				C230.279-52.691,227.358-51.39,225.235-50.172"/>
			<path clip-path="url(#SVGID_2_)" fill="#FCB216" d="M229.355-69.319c-7.804,0-12.941,4.752-13.621,12.895h6.545
				c0.145-3.732,2.52-6.98,6.252-6.98c2.908,0,5.236,1.357,5.236,4.749c0,1.605-0.67,2.898-1.673,3.989
				c2.85-0.569,5.529-1.019,8.06-1.361c0.315-0.944,0.497-1.959,0.497-3.062C240.651-66.12,235.512-69.319,229.355-69.319"/>
			<path clip-path="url(#SVGID_2_)" fill="#FCB216" d="M249.567-59.769h-7.028l0.376,3.408c2.4-0.261,4.664-0.422,6.812-0.498
				L249.567-59.769z"/>
			<path clip-path="url(#SVGID_2_)" fill="#FCB216" d="M265.321-59.769h-6.979l-1.304,2.981c3.013,0.172,5.804,0.511,8.458,0.962
				L265.321-59.769z"/>
			<path clip-path="url(#SVGID_2_)" fill="#FFFFFF" d="M266.193-42.271h-0.097l-0.601-13.554c-2.654-0.452-5.445-0.79-8.458-0.963
				l-6.403,14.663h-0.097l-0.811-14.734c-2.148,0.077-4.412,0.237-6.812,0.498l2.388,21.651h7.223l7.754-17.596h0.097l0.873,17.596
				h7.175l9.521-18.231c-2.029-0.547-4.053-1.084-6.119-1.577L266.193-42.271z"/>
			<path clip-path="url(#SVGID_2_)" fill="#FCB216" d="M274.24-59.769l-2.414,5.251c2.065,0.492,4.091,1.029,6.118,1.576
				l3.567-6.827H274.24z"/>
			<path clip-path="url(#SVGID_2_)" fill="#FFFFFF" d="M288.5-49.153c-5.962,0.728-9.597,3.732-9.597,8.53
				c0,3.491,2.665,6.593,8.142,6.593c2.812,0,5.77-1.018,7.66-3.15v2.473h6.882c-0.146-0.437-0.242-1.019-0.242-1.456
				c0-0.968,0.097-2.519,0.34-3.393l1.884-8.517c-3.701-0.256-7.587-0.714-11.545-1.453C290.986-49.422,289.818-49.311,288.5-49.153
				 M296.013-44.306c-0.774,2.715-2.181,5.67-6.447,5.67c-1.986,0-3.779-0.921-3.779-2.811c0-3.149,2.472-3.78,5.089-4.072
				c1.986-0.146,4.072-0.193,5.815-1.211L296.013-44.306z"/>
			<path clip-path="url(#SVGID_2_)" fill="#FFC425" d="M304.447-53.854c0.097-5.624-5.962-6.594-10.421-6.594
				c-5.672,0-11.004,1.987-11.876,8.29h6.447c0.436-2.521,2.617-3.685,5.089-3.685c1.745,0,4.362,0.582,4.362,3.053
				c0,2.551-1.948,2.854-6.024,3.264c3.958,0.739,7.842,1.197,11.543,1.453l0.347-1.565C304.205-51.19,304.447-52.79,304.447-53.854
				"/>
			<path clip-path="url(#SVGID_2_)" fill="#FFFFFF" d="M316.25-41.931h-0.097l-0.518-5.945c-2.052,0.071-4.242,0.094-6.54,0.049
				l1.725,13.118h7.853l7.671-14.012c-1.944,0.244-4.323,0.489-7.048,0.665L316.25-41.931z"/>
			<path clip-path="url(#SVGID_2_)" fill="#FCB216" d="M325.121-59.769l-5.826,11.713c2.726-0.177,5.104-0.421,7.049-0.665
				l6.048-11.048H325.121z"/>
			<path clip-path="url(#SVGID_2_)" fill="#FCB216" d="M315.636-47.876l-1.034-11.893h-7.077l1.571,11.941
				C311.394-47.782,313.584-47.805,315.636-47.876"/>
			<polygon clip-path="url(#SVGID_2_)" fill="#FCB216" points="287.055,-70.397 304.514,-70.397 302.893,-64.87 285.435,-64.87
				"/>
			<path clip-path="url(#SVGID_2_)" fill="#FCB216" d="M225.235,20.789c-6.641,3.539-13.089,6.98-13.668,15.463h25.156l1.357-5.914
				h-16.722c4.694-4.954,16.276-7.845,18.795-15.404c-2.53,0.342-5.21,0.79-8.061,1.36C230.279,18.27,227.358,19.571,225.235,20.789
				"/>
			<path clip-path="url(#SVGID_2_)" fill="#FFFFFF" d="M229.355,1.642c-7.804,0-12.941,4.751-13.621,12.895h6.545
				c0.145-3.732,2.52-6.98,6.252-6.98c2.908,0,5.236,1.357,5.236,4.749c0,1.605-0.67,2.898-1.673,3.989
				c2.85-0.569,5.529-1.019,8.06-1.361c0.315-0.944,0.497-1.959,0.497-3.062C240.651,4.841,235.512,1.642,229.355,1.642"/>
			<path clip-path="url(#SVGID_2_)" fill="#FFFFFF" d="M249.567,11.191h-7.028l0.376,3.409c2.4-0.261,4.664-0.422,6.812-0.498
				L249.567,11.191z"/>
			<path clip-path="url(#SVGID_2_)" fill="#FFFFFF" d="M265.321,11.191h-6.979l-1.304,2.982c3.013,0.172,5.804,0.511,8.458,0.962
				L265.321,11.191z"/>
			<path clip-path="url(#SVGID_2_)" fill="#FCB216" d="M266.193,28.69h-0.097l-0.601-13.555c-2.654-0.452-5.445-0.79-8.458-0.962
				l-6.403,14.663h-0.097l-0.811-14.735c-2.148,0.077-4.412,0.238-6.812,0.498l2.388,21.652h7.223l7.754-17.596h0.097l0.873,17.596
				h7.175l9.521-18.231c-2.029-0.548-4.053-1.085-6.119-1.577L266.193,28.69z"/>
			<path clip-path="url(#SVGID_2_)" fill="#FFFFFF" d="M274.24,11.191l-2.414,5.251c2.065,0.493,4.091,1.03,6.118,1.577l3.567-6.828
				H274.24z"/>
			<path clip-path="url(#SVGID_2_)" fill="#FCB216" d="M288.5,21.808c-5.962,0.728-9.597,3.732-9.597,8.53
				c0,3.491,2.665,6.593,8.142,6.593c2.812,0,5.77-1.018,7.66-3.15v2.473h6.882c-0.146-0.437-0.242-1.019-0.242-1.456
				c0-0.968,0.097-2.519,0.34-3.393l1.884-8.517c-3.701-0.256-7.587-0.714-11.545-1.453C290.986,21.538,289.818,21.65,288.5,21.808
				 M296.013,26.655c-0.774,2.715-2.181,5.67-6.447,5.67c-1.986,0-3.779-0.921-3.779-2.811c0-3.149,2.472-3.78,5.089-4.072
				c1.986-0.146,4.072-0.193,5.815-1.212L296.013,26.655z"/>
			<path clip-path="url(#SVGID_2_)" fill="#FFFFFF" d="M304.447,17.105c0.097-5.624-5.962-6.593-10.421-6.593
				c-5.672,0-11.004,1.987-11.876,8.29h6.447c0.436-2.522,2.617-3.685,5.089-3.685c1.745,0,4.362,0.582,4.362,3.053
				c0,2.551-1.948,2.853-6.024,3.264c3.958,0.739,7.842,1.197,11.543,1.453l0.347-1.566
				C304.205,19.771,304.447,18.171,304.447,17.105"/>
			<path clip-path="url(#SVGID_2_)" fill="#FCB216" d="M316.25,29.029h-0.097l-0.518-5.944c-2.052,0.07-4.242,0.094-6.54,0.049
				l1.725,13.118h7.853l7.671-14.013c-1.944,0.244-4.323,0.49-7.048,0.665L316.25,29.029z"/>
			<path clip-path="url(#SVGID_2_)" fill="#FFFFFF" d="M325.121,11.191l-5.826,11.713c2.726-0.176,5.104-0.421,7.049-0.665
				l6.048-11.048H325.121z"/>
			<path clip-path="url(#SVGID_2_)" fill="#FFFFFF" d="M315.636,23.085l-1.034-11.894h-7.077l1.571,11.942
				C311.394,23.179,313.584,23.155,315.636,23.085"/>
			<polygon clip-path="url(#SVGID_2_)" fill="#FFFFFF" points="287.055,0.563 304.514,0.563 302.893,6.091 285.435,6.091 			"/>
			<path clip-path="url(#SVGID_2_)" fill="#A7A9AC" d="M12.708-129.982c-6.64,3.539-13.088,6.98-13.668,15.463h25.157l1.357-5.914
				H8.832c4.695-4.954,16.277-7.845,18.795-15.405c-2.53,0.342-5.21,0.791-8.06,1.361C17.752-132.502,14.831-131.201,12.708-129.982
				"/>
			<path clip-path="url(#SVGID_2_)" d="M16.829-149.13c-7.804,0-12.941,4.751-13.621,12.894h6.545c0.145-3.732,2.52-6.98,6.252-6.98
				c2.908,0,5.236,1.357,5.236,4.749c0,1.605-0.67,2.898-1.673,3.989c2.85-0.569,5.53-1.019,8.06-1.361
				c0.315-0.945,0.497-1.959,0.497-3.063C28.125-145.931,22.985-149.13,16.829-149.13"/>
			<path clip-path="url(#SVGID_2_)" d="M37.041-139.58h-7.028l0.376,3.409c2.4-0.261,4.664-0.422,6.812-0.498L37.041-139.58z"/>
			<path clip-path="url(#SVGID_2_)" d="M52.795-139.58h-6.98l-1.304,2.982c3.013,0.172,5.804,0.511,8.458,0.962L52.795-139.58z"/>
			<path clip-path="url(#SVGID_2_)" fill="#A7A9AC" d="M53.667-122.082h-0.097l-0.6-13.554c-2.654-0.452-5.446-0.79-8.458-0.962
				l-6.404,14.663h-0.096l-0.811-14.735c-2.148,0.077-4.412,0.238-6.812,0.498l2.387,21.652h7.223l7.754-17.596h0.097l0.873,17.596
				h7.175l9.521-18.232c-2.029-0.547-4.054-1.084-6.12-1.577L53.667-122.082z"/>
			<path clip-path="url(#SVGID_2_)" d="M61.714-139.58l-2.415,5.251c2.066,0.493,4.09,1.03,6.119,1.577l3.567-6.828H61.714z"/>
			<path clip-path="url(#SVGID_2_)" fill="#A7A9AC" d="M75.973-128.964c-5.962,0.727-9.597,3.732-9.597,8.53
				c0,3.491,2.665,6.593,8.143,6.593c2.811,0,5.77-1.018,7.659-3.151v2.473h6.883c-0.146-0.437-0.242-1.019-0.242-1.456
				c0-0.968,0.097-2.519,0.34-3.393l1.883-8.516c-3.701-0.256-7.586-0.714-11.544-1.453
				C78.459-129.233,77.291-129.122,75.973-128.964 M83.486-124.117c-0.775,2.715-2.182,5.67-6.447,5.67
				c-1.986,0-3.78-0.921-3.78-2.81c0-3.15,2.473-3.781,5.089-4.073c1.986-0.145,4.072-0.193,5.816-1.211L83.486-124.117z"/>
			<path clip-path="url(#SVGID_2_)" d="M91.921-133.666c0.097-5.624-5.962-6.593-10.421-6.593c-5.673,0-11.005,1.987-11.876,8.29
				h6.446c0.437-2.522,2.617-3.685,5.089-3.685c1.745,0,4.362,0.582,4.362,3.053c0,2.551-1.948,2.853-6.023,3.264
				c3.958,0.739,7.842,1.197,11.543,1.453l0.347-1.566C91.679-131.001,91.921-132.601,91.921-133.666"/>
			<path clip-path="url(#SVGID_2_)" fill="#A7A9AC" d="M103.723-121.742h-0.096l-0.519-5.945c-2.052,0.071-4.241,0.094-6.54,0.049
				l1.726,13.118h7.852l7.671-14.012c-1.943,0.244-4.323,0.49-7.048,0.665L103.723-121.742z"/>
			<path clip-path="url(#SVGID_2_)" d="M112.594-139.58l-5.825,11.713c2.726-0.176,5.104-0.421,7.049-0.665l6.048-11.048H112.594z"
				/>
			<path clip-path="url(#SVGID_2_)" d="M103.109-127.687l-1.034-11.893h-7.077l1.571,11.942
				C98.867-127.593,101.057-127.616,103.109-127.687"/>
			<polygon clip-path="url(#SVGID_2_)" points="74.528,-150.208 91.987,-150.208 90.366,-144.681 72.907,-144.681 			"/>
			<path clip-path="url(#SVGID_2_)" fill="#A7A9AC" d="M223.455-129.982c-6.64,3.539-13.088,6.98-13.668,15.463h25.157l1.357-5.914
				h-16.723c4.695-4.954,16.277-7.845,18.795-15.405c-2.529,0.342-5.21,0.791-8.06,1.361
				C228.499-132.502,225.578-131.201,223.455-129.982"/>
			<path clip-path="url(#SVGID_2_)" fill="#FFFFFF" d="M227.576-149.13c-7.805,0-12.941,4.751-13.621,12.894h6.545
				c0.145-3.732,2.52-6.98,6.252-6.98c2.908,0,5.236,1.357,5.236,4.749c0,1.605-0.671,2.898-1.674,3.989
				c2.851-0.569,5.53-1.019,8.061-1.361c0.314-0.945,0.497-1.959,0.497-3.063C238.872-145.931,233.731-149.13,227.576-149.13"/>
			<path clip-path="url(#SVGID_2_)" fill="#FFFFFF" d="M247.788-139.58h-7.028l0.376,3.409c2.4-0.261,4.664-0.422,6.812-0.498
				L247.788-139.58z"/>
			<path clip-path="url(#SVGID_2_)" fill="#FFFFFF" d="M263.542-139.58h-6.979l-1.305,2.982c3.014,0.172,5.805,0.511,8.458,0.962
				L263.542-139.58z"/>
			<path clip-path="url(#SVGID_2_)" fill="#A7A9AC" d="M264.414-122.082h-0.098l-0.6-13.554c-2.654-0.452-5.446-0.79-8.458-0.962
				l-6.404,14.663h-0.096l-0.811-14.735c-2.148,0.077-4.412,0.238-6.812,0.498l2.387,21.652h7.224l7.754-17.596h0.097l0.873,17.596
				h7.175l9.521-18.232c-2.029-0.547-4.054-1.084-6.119-1.577L264.414-122.082z"/>
			<path clip-path="url(#SVGID_2_)" fill="#FFFFFF" d="M272.461-139.58l-2.415,5.251c2.066,0.493,4.091,1.03,6.119,1.577
				l3.567-6.828H272.461z"/>
			<path clip-path="url(#SVGID_2_)" fill="#A7A9AC" d="M286.721-128.964c-5.962,0.727-9.598,3.732-9.598,8.53
				c0,3.491,2.665,6.593,8.143,6.593c2.812,0,5.77-1.018,7.66-3.151v2.473h6.882c-0.146-0.437-0.242-1.019-0.242-1.456
				c0-0.968,0.097-2.519,0.34-3.393l1.883-8.516c-3.701-0.256-7.586-0.714-11.544-1.453
				C289.206-129.233,288.038-129.122,286.721-128.964 M294.233-124.117c-0.775,2.715-2.181,5.67-6.447,5.67
				c-1.986,0-3.779-0.921-3.779-2.81c0-3.15,2.472-3.781,5.089-4.073c1.985-0.145,4.071-0.193,5.815-1.211L294.233-124.117z"/>
			<path clip-path="url(#SVGID_2_)" fill="#FFFFFF" d="M302.668-133.666c0.097-5.624-5.962-6.593-10.421-6.593
				c-5.672,0-11.004,1.987-11.876,8.29h6.447c0.436-2.522,2.616-3.685,5.089-3.685c1.745,0,4.361,0.582,4.361,3.053
				c0,2.551-1.947,2.853-6.023,3.264c3.958,0.739,7.842,1.197,11.543,1.453l0.347-1.566
				C302.426-131.001,302.668-132.601,302.668-133.666"/>
			<path clip-path="url(#SVGID_2_)" fill="#A7A9AC" d="M314.47-121.742h-0.096l-0.519-5.945c-2.052,0.071-4.24,0.094-6.54,0.049
				l1.726,13.118h7.852l7.671-14.012c-1.943,0.244-4.322,0.49-7.048,0.665L314.47-121.742z"/>
			<path clip-path="url(#SVGID_2_)" fill="#FFFFFF" d="M323.342-139.58l-5.826,11.713c2.726-0.176,5.104-0.421,7.049-0.665
				l6.048-11.048H323.342z"/>
			<path clip-path="url(#SVGID_2_)" fill="#FFFFFF" d="M313.856-127.687l-1.034-11.893h-7.077l1.571,11.942
				C309.614-127.593,311.805-127.616,313.856-127.687"/>
			<polygon clip-path="url(#SVGID_2_)" fill="#FFFFFF" points="285.275,-150.208 302.734,-150.208 301.112,-144.681 
				283.654,-144.681 			"/>
			<path clip-path="url(#SVGID_2_)" fill="#141006" d="M14.488,95.467C7.848,99.006,1.4,102.446,0.82,110.93h25.157l1.357-5.914
				H10.612c4.695-4.955,16.277-7.845,18.795-15.405c-2.53,0.341-5.21,0.791-8.06,1.361C19.532,92.946,16.611,94.248,14.488,95.467"
				/>
			<path clip-path="url(#SVGID_2_)" fill="#A7A9AC" d="M18.608,76.319c-7.804,0-12.941,4.751-13.621,12.894h6.545
				c0.145-3.731,2.52-6.979,6.252-6.979c2.908,0,5.236,1.356,5.236,4.749c0,1.604-0.67,2.897-1.673,3.988
				c2.85-0.568,5.53-1.019,8.06-1.36c0.315-0.945,0.497-1.959,0.497-3.063C29.904,79.519,24.764,76.319,18.608,76.319"/>
			<path clip-path="url(#SVGID_2_)" fill="#A7A9AC" d="M38.82,85.869h-7.028l0.376,3.409c2.4-0.262,4.664-0.422,6.812-0.498
				L38.82,85.869z"/>
			<path clip-path="url(#SVGID_2_)" fill="#A7A9AC" d="M54.575,85.869h-6.98l-1.304,2.981c3.013,0.173,5.804,0.512,8.458,0.963
				L54.575,85.869z"/>
			<path clip-path="url(#SVGID_2_)" fill="#141006" d="M55.446,103.367h-0.097l-0.6-13.554c-2.654-0.452-5.446-0.79-8.458-0.962
				l-6.404,14.663h-0.096L38.98,88.779c-2.148,0.077-4.412,0.238-6.812,0.498l2.387,21.652h7.223l7.754-17.597h0.097l0.873,17.597
				h7.175l9.521-18.232c-2.029-0.547-4.054-1.085-6.119-1.577L55.446,103.367z"/>
			<path clip-path="url(#SVGID_2_)" fill="#A7A9AC" d="M63.493,85.869l-2.415,5.251c2.066,0.493,4.09,1.03,6.119,1.577l3.567-6.828
				H63.493z"/>
			<path clip-path="url(#SVGID_2_)" fill="#141006" d="M77.753,96.485c-5.962,0.727-9.598,3.731-9.598,8.53
				c0,3.49,2.665,6.593,8.143,6.593c2.811,0,5.77-1.019,7.66-3.151v2.474h6.882c-0.146-0.438-0.242-1.02-0.242-1.456
				c0-0.969,0.097-2.52,0.34-3.394l1.883-8.516c-3.7-0.256-7.586-0.714-11.544-1.453C80.238,96.215,79.07,96.327,77.753,96.485
				 M85.266,101.332c-0.775,2.715-2.181,5.67-6.447,5.67c-1.985,0-3.779-0.921-3.779-2.81c0-3.15,2.472-3.781,5.089-4.073
				c1.985-0.145,4.071-0.193,5.815-1.211L85.266,101.332z"/>
			<path clip-path="url(#SVGID_2_)" fill="#A7A9AC" d="M93.7,91.783c0.097-5.624-5.962-6.593-10.421-6.593
				c-5.672,0-11.004,1.986-11.876,8.29h6.446c0.437-2.522,2.617-3.686,5.09-3.686c1.745,0,4.361,0.582,4.361,3.053
				c0,2.552-1.947,2.854-6.023,3.265c3.958,0.739,7.842,1.197,11.543,1.453l0.347-1.566C93.458,94.448,93.7,92.848,93.7,91.783"/>
			<path clip-path="url(#SVGID_2_)" fill="#141006" d="M105.502,103.707h-0.096l-0.519-5.945c-2.052,0.071-4.24,0.095-6.54,0.049
				l1.726,13.118h7.852l7.671-14.012c-1.943,0.244-4.322,0.49-7.048,0.665L105.502,103.707z"/>
			<path clip-path="url(#SVGID_2_)" fill="#A7A9AC" d="M114.374,85.869l-5.826,11.713c2.726-0.176,5.104-0.421,7.049-0.665
				l6.048-11.048H114.374z"/>
			<path clip-path="url(#SVGID_2_)" fill="#A7A9AC" d="M104.889,97.762l-1.034-11.893h-7.077l1.571,11.942
				C100.646,97.856,102.837,97.833,104.889,97.762"/>
			<polygon clip-path="url(#SVGID_2_)" fill="#A7A9AC" points="76.308,75.241 93.767,75.241 92.145,80.768 74.687,80.768 			"/>
			<path clip-path="url(#SVGID_2_)" fill="#FFFFFF" d="M225.235,95.467c-6.641,3.539-13.089,6.979-13.668,15.463h25.156l1.357-5.914
				h-16.722c4.694-4.955,16.276-7.845,18.795-15.405c-2.53,0.341-5.21,0.791-8.061,1.361
				C230.279,92.946,227.358,94.248,225.235,95.467"/>
			<path clip-path="url(#SVGID_2_)" fill="#A7A9AC" d="M229.355,76.319c-7.804,0-12.941,4.751-13.621,12.894h6.545
				c0.145-3.731,2.52-6.979,6.252-6.979c2.908,0,5.236,1.356,5.236,4.749c0,1.604-0.67,2.897-1.673,3.988
				c2.85-0.568,5.529-1.019,8.06-1.36c0.315-0.945,0.497-1.959,0.497-3.063C240.651,79.519,235.512,76.319,229.355,76.319"/>
			<path clip-path="url(#SVGID_2_)" fill="#A7A9AC" d="M249.567,85.869h-7.028l0.376,3.409c2.4-0.262,4.664-0.422,6.812-0.498
				L249.567,85.869z"/>
			<path clip-path="url(#SVGID_2_)" fill="#A7A9AC" d="M265.321,85.869h-6.979l-1.304,2.981c3.013,0.173,5.804,0.512,8.458,0.963
				L265.321,85.869z"/>
			<path clip-path="url(#SVGID_2_)" fill="#FFFFFF" d="M266.193,103.367h-0.097l-0.601-13.554c-2.654-0.452-5.445-0.79-8.458-0.962
				l-6.403,14.663h-0.097l-0.811-14.735c-2.148,0.077-4.412,0.238-6.812,0.498l2.388,21.652h7.223l7.754-17.597h0.097l0.873,17.597
				h7.175l9.521-18.232c-2.029-0.547-4.053-1.085-6.119-1.577L266.193,103.367z"/>
			<path clip-path="url(#SVGID_2_)" fill="#A7A9AC" d="M274.24,85.869l-2.414,5.251c2.065,0.493,4.091,1.03,6.118,1.577l3.567-6.828
				H274.24z"/>
			<path clip-path="url(#SVGID_2_)" fill="#FFFFFF" d="M288.5,96.485c-5.962,0.727-9.597,3.731-9.597,8.53
				c0,3.49,2.665,6.593,8.142,6.593c2.812,0,5.77-1.019,7.66-3.151v2.474h6.882c-0.146-0.438-0.242-1.02-0.242-1.456
				c0-0.969,0.097-2.52,0.34-3.394l1.884-8.516c-3.701-0.256-7.587-0.714-11.545-1.453C290.986,96.215,289.818,96.327,288.5,96.485
				 M296.013,101.332c-0.774,2.715-2.181,5.67-6.447,5.67c-1.986,0-3.779-0.921-3.779-2.81c0-3.15,2.472-3.781,5.089-4.073
				c1.986-0.145,4.072-0.193,5.815-1.211L296.013,101.332z"/>
			<path clip-path="url(#SVGID_2_)" fill="#A7A9AC" d="M304.447,91.783c0.097-5.624-5.962-6.593-10.421-6.593
				c-5.672,0-11.004,1.986-11.876,8.29h6.447c0.436-2.522,2.617-3.686,5.089-3.686c1.745,0,4.362,0.582,4.362,3.053
				c0,2.552-1.948,2.854-6.024,3.265c3.958,0.739,7.842,1.197,11.543,1.453l0.347-1.566
				C304.205,94.448,304.447,92.848,304.447,91.783"/>
			<path clip-path="url(#SVGID_2_)" fill="#FFFFFF" d="M316.25,103.707h-0.097l-0.518-5.945c-2.052,0.071-4.242,0.095-6.54,0.049
				l1.725,13.118h7.853l7.671-14.012c-1.944,0.244-4.323,0.49-7.048,0.665L316.25,103.707z"/>
			<path clip-path="url(#SVGID_2_)" fill="#A7A9AC" d="M325.121,85.869l-5.826,11.713c2.726-0.176,5.104-0.421,7.049-0.665
				l6.048-11.048H325.121z"/>
			<path clip-path="url(#SVGID_2_)" fill="#A7A9AC" d="M315.636,97.762l-1.034-11.893h-7.077l1.571,11.942
				C311.394,97.856,313.584,97.833,315.636,97.762"/>
			<polygon clip-path="url(#SVGID_2_)" fill="#A7A9AC" points="287.055,75.241 304.514,75.241 302.893,80.768 285.435,80.768 			"/>
			<rect x="6.867" y="158.226" clip-path="url(#SVGID_2_)" fill="#FAA836" width="12.159" height="12.158"/>
		</g>
	</g>
</g>
</svg>
